<svg width="499" height="355" viewBox="0 0 499 355" fill="none" xmlns="http://www.w3.org/2000/svg">
<path fill-rule="evenodd" clip-rule="evenodd" d="M0.764709 311.253H499V311.003H0.764709V311.253Z" fill="#ECECEC"/>
<path fill-rule="evenodd" clip-rule="evenodd" d="M416.31 327.253H449.805V327.003H416.31V327.253Z" fill="#ECECEC"/>
<path fill-rule="evenodd" clip-rule="evenodd" d="M322.106 330.253H330.479V330.003H322.106V330.253Z" fill="#ECECEC"/>
<path fill-rule="evenodd" clip-rule="evenodd" d="M396.422 318.253H415.263V318.003H396.422V318.253Z" fill="#ECECEC"/>
<path fill-rule="evenodd" clip-rule="evenodd" d="M53.1003 320.252H96.0156V320.003H53.1003V320.252Z" fill="#ECECEC"/>
<path fill-rule="evenodd" clip-rule="evenodd" d="M104.389 320.252H110.67V320.003H104.389V320.252Z" fill="#ECECEC"/>
<path fill-rule="evenodd" clip-rule="evenodd" d="M131.604 323.253H224.761V323.003H131.604V323.253Z" fill="#ECECEC"/>
<path fill-rule="evenodd" clip-rule="evenodd" d="M44.5237 0.23819C41.5243 0.23819 39.085 2.56866 39.085 5.43414V263.833C39.085 266.699 41.5243 269.029 44.5237 269.029H236.941C239.939 269.029 242.379 266.699 242.379 263.833V5.43414C242.379 2.56866 239.939 0.23819 236.941 0.23819H44.5237ZM236.942 269.267H44.5247C41.3888 269.267 38.8369 266.83 38.8369 263.833V5.43414C38.8369 2.43823 41.3888 0.000183105 44.5247 0.000183105H236.942C240.077 0.000183105 242.629 2.43823 242.629 5.43414V263.833C242.629 266.83 240.077 269.267 236.942 269.267V269.267Z" fill="#ECECEC"/>
<path fill-rule="evenodd" clip-rule="evenodd" d="M260.057 0.23819C257.059 0.23819 254.619 2.56866 254.619 5.43414V263.833C254.619 266.699 257.059 269.029 260.057 269.029H452.475C455.473 269.029 457.913 266.699 457.913 263.833V5.43414C457.913 2.56866 455.473 0.23819 452.475 0.23819H260.057ZM452.476 269.267H260.058C256.923 269.267 254.371 266.83 254.371 263.833V5.43414C254.371 2.43823 256.923 0.000183105 260.058 0.000183105H452.476C455.612 0.000183105 458.164 2.43823 458.164 5.43414V263.833C458.164 266.83 455.612 269.267 452.476 269.267V269.267Z" fill="#ECECEC"/>
<mask id="mask0" mask-type="alpha" maskUnits="userSpaceOnUse" x="0" y="0" width="499" height="355">
<path fill-rule="evenodd" clip-rule="evenodd" d="M0.764709 354.72H499V0H0.764709V354.72Z" fill="white"/>
</mask>
<g mask="url(#mask0)">
<path fill-rule="evenodd" clip-rule="evenodd" d="M67.4924 138.23H126.936V53.5798H67.4924V138.23Z" fill="#E7E7E7"/>
<path fill-rule="evenodd" clip-rule="evenodd" d="M126.936 138.23H127.871V53.5798H126.936V138.23Z" fill="#E1E1E1"/>
<path fill-rule="evenodd" clip-rule="evenodd" d="M70.8564 135.016H123.571V56.7947H70.8564V135.016Z" fill="#FAFAFA"/>
<path fill-rule="evenodd" clip-rule="evenodd" d="M111.303 79.9659C111.303 87.4009 104.995 93.427 97.2133 93.427C89.4319 93.427 83.1242 87.4009 83.1242 79.9659C83.1242 72.5318 89.4319 66.5048 97.2133 66.5048C104.995 66.5048 111.303 72.5318 111.303 79.9659" fill="#F0F0F0"/>
<path fill-rule="evenodd" clip-rule="evenodd" d="M79.8287 104.619H114.599V101.218H79.8287V104.619Z" fill="#ECECEC"/>
<path fill-rule="evenodd" clip-rule="evenodd" d="M79.8287 113.655H114.599V110.255H79.8287V113.655Z" fill="#ECECEC"/>
<path fill-rule="evenodd" clip-rule="evenodd" d="M79.8287 122.693H114.599V119.293H79.8287V122.693Z" fill="#ECECEC"/>
<path fill-rule="evenodd" clip-rule="evenodd" d="M142.187 150.419H201.631V65.7691H142.187V150.419Z" fill="#E7E7E7"/>
<path fill-rule="evenodd" clip-rule="evenodd" d="M201.631 150.419H202.566V65.7691H201.631V150.419Z" fill="#E1E1E1"/>
<path fill-rule="evenodd" clip-rule="evenodd" d="M145.551 147.204H198.265V68.983H145.551V147.204Z" fill="#FAFAFA"/>
<path fill-rule="evenodd" clip-rule="evenodd" d="M185.999 92.1544C185.999 99.5895 179.69 105.616 171.909 105.616C164.127 105.616 157.819 99.5895 157.819 92.1544C157.819 84.7203 164.127 78.6933 171.909 78.6933C179.69 78.6933 185.999 84.7203 185.999 92.1544" fill="#F0F0F0"/>
<path fill-rule="evenodd" clip-rule="evenodd" d="M154.524 116.807H189.293V113.407H154.524V116.807Z" fill="#ECECEC"/>
<path fill-rule="evenodd" clip-rule="evenodd" d="M154.524 125.844H189.293V122.444H154.524V125.844Z" fill="#ECECEC"/>
<path fill-rule="evenodd" clip-rule="evenodd" d="M154.524 134.882H189.293V131.481H154.524V134.882Z" fill="#ECECEC"/>
<path fill-rule="evenodd" clip-rule="evenodd" d="M151.468 188.327H411.237V185.684H151.468V188.327Z" fill="#ECECEC"/>
<path fill-rule="evenodd" clip-rule="evenodd" d="M411.237 188.327H432.273V185.684H411.237V188.327Z" fill="#E1E1E1"/>
<path fill-rule="evenodd" clip-rule="evenodd" d="M155.033 311.725H411.237V188.327H155.033V311.725Z" fill="#F5F5F5"/>
<path fill-rule="evenodd" clip-rule="evenodd" d="M211.057 311.725H212.496V188.327H211.057V311.725Z" fill="#E7E7E7"/>
<path fill-rule="evenodd" clip-rule="evenodd" d="M278.817 311.725H280.256V213.419H278.817V311.725Z" fill="#E7E7E7"/>
<path fill-rule="evenodd" clip-rule="evenodd" d="M155.033 287.321H211.776V285.946H155.033V287.321Z" fill="#E7E7E7"/>
<path fill-rule="evenodd" clip-rule="evenodd" d="M155.033 262.916H211.776V261.542H155.033V262.916Z" fill="#E7E7E7"/>
<path fill-rule="evenodd" clip-rule="evenodd" d="M155.033 238.511H211.776V237.137H155.033V238.511Z" fill="#E7E7E7"/>
<path fill-rule="evenodd" clip-rule="evenodd" d="M155.033 214.107H411.237V212.732H155.033V214.107Z" fill="#E7E7E7"/>
<path fill-rule="evenodd" clip-rule="evenodd" d="M411.237 311.725H429.647V188.327H411.237V311.725Z" fill="#ECECEC"/>
<path fill-rule="evenodd" clip-rule="evenodd" d="M324.891 144.075H415.57V20.7162H324.891V144.075Z" fill="#FAFAFA"/>
<path fill-rule="evenodd" clip-rule="evenodd" d="M416.566 22.1971H323.894C323.038 22.1971 322.344 21.5346 322.344 20.7158C322.344 19.8981 323.038 19.2355 323.894 19.2355H416.566C417.422 19.2355 418.115 19.8981 418.115 20.7158C418.115 21.5346 417.422 22.1971 416.566 22.1971" fill="#ECECEC"/>
<path fill-rule="evenodd" clip-rule="evenodd" d="M416.566 145.556H323.894C323.038 145.556 322.344 144.893 322.344 144.075C322.344 143.257 323.038 142.594 323.894 142.594H416.566C417.422 142.594 418.115 143.257 418.115 144.075C418.115 144.893 417.422 145.556 416.566 145.556" fill="#ECECEC"/>
<path fill-rule="evenodd" clip-rule="evenodd" d="M373.631 91.6394H366.829C361.027 91.6394 356.279 87.1041 356.279 81.5607V61.2586C356.279 55.7151 361.027 51.1799 366.829 51.1799H373.631C379.433 51.1799 384.181 55.7151 384.181 61.2586V81.5607C384.181 87.1041 379.433 91.6394 373.631 91.6394" fill="#F0F0F0"/>
<path fill-rule="evenodd" clip-rule="evenodd" d="M362.258 132.733V132.733C358.97 132.733 356.279 130.163 356.279 127.021V83.865C356.279 80.7234 358.97 78.153 362.258 78.153C365.547 78.153 368.237 80.7234 368.237 83.865V127.021C368.237 130.163 365.547 132.733 362.258 132.733" fill="#F0F0F0"/>
<path fill-rule="evenodd" clip-rule="evenodd" d="M350.59 88.6807V88.6807C348.626 88.6807 347.02 87.1452 347.02 85.2697V59.4956C347.02 57.6192 348.626 56.0837 350.59 56.0837C352.554 56.0837 354.16 57.6192 354.16 59.4956V85.2697C354.16 87.1452 352.554 88.6807 350.59 88.6807" fill="#F0F0F0"/>
<path fill-rule="evenodd" clip-rule="evenodd" d="M389.869 88.6807V88.6807C387.905 88.6807 386.299 87.1452 386.299 85.2697V59.4956C386.299 57.6192 387.905 56.0837 389.869 56.0837C391.833 56.0837 393.44 57.6192 393.44 59.4956V85.2697C393.44 87.1452 391.833 88.6807 389.869 88.6807" fill="#F0F0F0"/>
<path fill-rule="evenodd" clip-rule="evenodd" d="M378.202 132.733V132.733C374.913 132.733 372.223 130.163 372.223 127.021V83.865C372.223 80.7234 374.913 78.153 378.202 78.153C381.49 78.153 384.181 80.7234 384.181 83.865V127.021C384.181 130.163 381.49 132.733 378.202 132.733" fill="#F0F0F0"/>
<path fill-rule="evenodd" clip-rule="evenodd" d="M379.032 38.9625C379.032 43.6073 375.091 47.3715 370.23 47.3715C365.369 47.3715 361.427 43.6073 361.427 38.9625C361.427 34.3187 365.369 30.5536 370.23 30.5536C375.091 30.5536 379.032 34.3187 379.032 38.9625" fill="#F0F0F0"/>
<path fill-rule="evenodd" clip-rule="evenodd" d="M338.839 185.683H380.58V161.566H338.839V185.683Z" fill="#F5F5F5"/>
<path fill-rule="evenodd" clip-rule="evenodd" d="M380.58 185.683H390.864V161.566H380.58V185.683Z" fill="#ECECEC"/>
<path fill-rule="evenodd" clip-rule="evenodd" d="M367.681 171.322H362.119V166.008H357.3V171.322H351.738V175.927H357.3V181.24H362.119V175.927H367.681V171.322Z" fill="white"/>
<path fill-rule="evenodd" clip-rule="evenodd" d="M302.289 185.683H298.303V143.026C298.303 135.093 291.548 128.641 283.245 128.641C274.943 128.641 268.188 135.093 268.188 143.026H264.202C264.202 132.994 272.746 124.833 283.245 124.833C293.746 124.833 302.289 132.994 302.289 143.026V185.683Z" fill="#ECECEC"/>
<path fill-rule="evenodd" clip-rule="evenodd" d="M305.722 185.684H309.707V179.442H305.722V185.684Z" fill="#ECECEC"/>
<path fill-rule="evenodd" clip-rule="evenodd" d="M178.965 185.684H182.95V183.463H178.965V185.684Z" fill="#ECECEC"/>
<path fill-rule="evenodd" clip-rule="evenodd" d="M171.903 185.684H175.888V183.463H171.903V185.684Z" fill="#ECECEC"/>
<path fill-rule="evenodd" clip-rule="evenodd" d="M86.1981 311.725H138.084V242.111H86.1981V311.725Z" fill="#F5F5F5"/>
<path fill-rule="evenodd" clip-rule="evenodd" d="M88.218 242.111H136.065V240.362H88.218V242.111Z" fill="#E7E7E7"/>
<path fill-rule="evenodd" clip-rule="evenodd" d="M102.638 224.656H121.645C130.725 224.656 138.085 231.688 138.085 240.362H86.1985C86.1985 231.688 93.5585 224.656 102.638 224.656" fill="#F5F5F5"/>
<path fill-rule="evenodd" clip-rule="evenodd" d="M93.093 304.089H87.6034C83.1881 304.089 79.6097 307.507 79.6097 311.725H101.086C101.086 307.507 97.5074 304.089 93.093 304.089" fill="#E7E7E7"/>
</g>
<path fill-rule="evenodd" clip-rule="evenodd" d="M188.126 111.503L184.2 106.628L178.706 110.117C178.706 110.117 181.22 112.828 184.265 116.628L188.126 111.503Z" fill="#CE5B51"/>
<path fill-rule="evenodd" clip-rule="evenodd" d="M239.415 111.393C239.177 111.88 239.019 112.172 238.821 112.546L238.254 113.585C237.871 114.265 237.486 114.939 237.087 115.601C236.294 116.929 235.465 118.232 234.593 119.517C232.852 122.086 230.98 124.604 228.82 127.014C226.668 129.423 224.257 131.754 221.357 133.839C219.893 134.871 218.301 135.837 216.538 136.658L215.184 137.244L213.754 137.752C213.274 137.915 212.761 138.039 212.263 138.177L211.886 138.275C211.778 138.306 211.52 138.355 211.344 138.39C210.946 138.472 210.563 138.524 210.182 138.56C208.655 138.713 207.271 138.59 206.067 138.36C204.858 138.127 203.795 137.8 202.824 137.431C200.89 136.687 199.3 135.8 197.821 134.881C194.898 133.03 192.465 131.009 190.152 128.944C187.846 126.88 185.706 124.747 183.653 122.562C182.626 121.472 181.613 120.375 180.623 119.258C179.619 118.124 178.688 117.048 177.659 115.789L187.607 108.369C188.379 109.313 189.31 110.391 190.196 111.388C191.098 112.399 192.014 113.401 192.952 114.378C194.834 116.323 196.772 118.196 198.757 119.92C200.74 121.632 202.807 123.203 204.788 124.381C205.768 124.958 206.737 125.436 207.521 125.705C208.295 125.993 208.876 125.979 208.698 125.939C208.68 125.939 208.656 125.942 208.615 125.942C208.615 125.938 208.539 125.965 208.604 125.942L208.752 125.891C208.949 125.819 209.144 125.777 209.345 125.695L209.955 125.449L210.578 125.143C211.417 124.706 212.279 124.145 213.137 123.488C214.853 122.151 216.531 120.443 218.066 118.519C219.613 116.608 221.048 114.497 222.36 112.3C223.013 111.198 223.636 110.071 224.223 108.934C224.519 108.365 224.801 107.793 225.076 107.224L225.472 106.377C225.589 106.12 225.743 105.779 225.8 105.628L239.415 111.393Z" fill="#007CFF"/>
<path fill-rule="evenodd" clip-rule="evenodd" d="M239.415 111.393C239.177 111.88 239.019 112.172 238.821 112.546L238.254 113.585C237.871 114.265 237.486 114.939 237.087 115.601C236.294 116.929 235.465 118.232 234.593 119.517C232.852 122.086 230.98 124.604 228.82 127.014C226.668 129.423 224.257 131.754 221.357 133.839C219.893 134.871 218.301 135.837 216.538 136.658L215.184 137.244L213.754 137.752C213.274 137.915 212.761 138.039 212.263 138.177L211.886 138.275C211.778 138.306 211.52 138.355 211.344 138.39C210.946 138.472 210.563 138.524 210.182 138.56C208.655 138.713 207.271 138.59 206.067 138.36C204.858 138.127 203.795 137.8 202.824 137.431C200.89 136.687 199.3 135.8 197.821 134.881C194.898 133.03 192.465 131.009 190.152 128.944C187.846 126.88 185.706 124.747 183.653 122.562C182.626 121.472 181.613 120.375 180.623 119.258C179.619 118.124 178.688 117.048 177.659 115.789L187.607 108.369C188.379 109.313 189.31 110.391 190.196 111.388C191.098 112.399 192.014 113.401 192.952 114.378C194.834 116.323 196.772 118.196 198.757 119.92C200.74 121.632 202.807 123.203 204.788 124.381C205.768 124.958 206.737 125.436 207.521 125.705C208.295 125.993 208.876 125.979 208.698 125.939C208.68 125.939 208.656 125.942 208.615 125.942C208.615 125.938 208.539 125.965 208.604 125.942L208.752 125.891C208.949 125.819 209.144 125.777 209.345 125.695L209.955 125.449L210.578 125.143C211.417 124.706 212.279 124.145 213.137 123.488C214.853 122.151 216.531 120.443 218.066 118.519C219.613 116.608 221.048 114.497 222.36 112.3C223.013 111.198 223.636 110.071 224.223 108.934C224.519 108.365 224.801 107.793 225.076 107.224L225.472 106.377C225.589 106.12 225.743 105.779 225.8 105.628L239.415 111.393Z" fill="white"/>
<path fill-rule="evenodd" clip-rule="evenodd" d="M237.322 248.628H266.63L255.518 196.628H241.162L237.322 248.628Z" fill="#007CFF"/>
<path fill-rule="evenodd" clip-rule="evenodd" d="M237.322 248.628H266.63L255.518 196.628H241.162L237.322 248.628Z" fill="white"/>
<path fill-rule="evenodd" clip-rule="evenodd" d="M243.602 335.628H236.576L236.275 319.628H243.301L243.602 335.628Z" fill="#CE5B51"/>
<path fill-rule="evenodd" clip-rule="evenodd" d="M284.424 335.628H277.184L273.957 319.628H281.197L284.424 335.628Z" fill="#CE5B51"/>
<path fill-rule="evenodd" clip-rule="evenodd" d="M276.245 334.628H284.575C284.878 334.628 285.136 334.827 285.194 335.109L286.497 341.363C286.632 342.012 286.079 342.626 285.379 342.614C282.472 342.567 281.063 342.405 277.4 342.405C275.146 342.405 270.498 342.628 267.385 342.628C264.341 342.628 263.942 339.706 265.223 339.442C270.966 338.257 273.16 336.621 275.03 335.061C275.367 334.779 275.802 334.628 276.245 334.628" fill="#1A2E35"/>
<path fill-rule="evenodd" clip-rule="evenodd" d="M235.92 334.628H243.804C244.099 334.628 244.349 334.827 244.406 335.109L245.675 341.363C245.807 342.011 245.286 342.626 244.605 342.615C241.762 342.567 237.657 342.405 234.082 342.405C229.903 342.405 229.567 342.628 224.665 342.628C221.701 342.628 220.952 339.706 222.199 339.442C227.877 338.239 229.213 338.109 234.167 335.176C234.705 334.858 235.297 334.628 235.92 334.628" fill="#1A2E35"/>
<path fill-rule="evenodd" clip-rule="evenodd" d="M181.492 104.69L176.525 104.628L175.566 110.382C175.566 110.382 180.442 111.323 184.986 109.525L184.895 107.658C184.813 106.014 183.321 104.713 181.492 104.69" fill="#CE5B51"/>
<path fill-rule="evenodd" clip-rule="evenodd" d="M169.285 104.902L170.19 108.698L175.708 110.628L176.612 104.628L169.285 104.902Z" fill="#CE5B51"/>
<path fill-rule="evenodd" clip-rule="evenodd" d="M236.275 319.628L236.432 327.628H243.602L243.445 319.628H236.275Z" fill="black"/>
<path fill-rule="evenodd" clip-rule="evenodd" d="M281.614 319.628H273.957L275.72 327.628H283.377L281.614 319.628Z" fill="black"/>
<path fill-rule="evenodd" clip-rule="evenodd" d="M227.232 107.28C225.173 114.754 221.488 133.625 225.523 163.628H265.236C265.62 158.369 263.098 134.592 267.56 109.832C268.329 105.566 265.211 101.553 260.684 101.074C259.14 100.912 257.505 100.775 255.889 100.701C250.82 100.469 243.725 100.827 239.254 101.213C236.624 101.441 234.179 101.944 232.28 102.431C229.804 103.066 227.881 104.924 227.232 107.28" fill="white"/>
<path fill-rule="evenodd" clip-rule="evenodd" d="M254.374 85.6278C253.197 90.7286 252.515 97.0501 256.163 100.453C256.163 100.453 253.885 105.628 243.965 105.628C234.901 105.628 239.572 100.454 239.572 100.454C245.559 99.0962 245.429 92.0619 244.494 88.0994L254.374 85.6278Z" fill="#CE5B51"/>
<path fill-rule="evenodd" clip-rule="evenodd" d="M242.611 104.846L240.617 107.291C240.473 107.465 240.425 107.71 240.491 107.929L241.13 110.084C241.202 110.33 241.404 110.499 241.639 110.512L243.788 110.627C243.993 110.637 244.191 110.528 244.308 110.337L245.593 108.245C245.743 108 245.727 107.679 245.556 107.461L243.478 104.84C243.252 104.555 242.846 104.558 242.611 104.846" fill="#007CFF"/>
<path fill-rule="evenodd" clip-rule="evenodd" d="M242.141 110.628C242.141 110.628 238.458 135.943 238.373 140.348C238.257 146.403 240.456 152.628 240.456 152.628C240.456 152.628 242.986 148.152 243.427 140.161C243.859 132.284 243.332 115.114 243.52 110.628H242.141Z" fill="#007CFF"/>
<path fill-rule="evenodd" clip-rule="evenodd" d="M243.865 88.125C244.441 90.4682 244.721 93.8782 243.602 96.5773C244.34 96.875 247.36 95.7902 248.616 95.0442C251.404 93.3854 252.483 91.7634 253.516 88.2986C253.674 87.3858 253.862 86.4918 254.069 85.6278L243.865 88.125Z" fill="black"/>
<path fill-rule="evenodd" clip-rule="evenodd" d="M234.429 82.883C235.134 84.6058 236.627 85.8438 238.12 86.4136C240.366 87.2703 241.81 85.4213 241.455 83.276C241.135 81.3445 239.58 78.5714 237.196 78.6286C234.847 78.685 233.623 80.9128 234.429 82.883" fill="#CE5B51"/>
<path fill-rule="evenodd" clip-rule="evenodd" d="M234.429 82.883C235.134 84.6058 236.627 85.8438 238.12 86.4136C240.366 87.2703 241.81 85.4213 241.455 83.276C241.135 81.3445 239.58 78.5714 237.196 78.6286C234.847 78.685 233.623 80.9128 234.429 82.883" fill="black"/>
<path fill-rule="evenodd" clip-rule="evenodd" d="M243.522 75.5947C243.103 78.6213 241.159 80.8657 239.179 80.6076C237.201 80.3494 235.936 77.6865 236.356 74.6607C236.775 71.6341 238.718 69.3906 240.697 69.6479C242.676 69.906 243.941 72.569 243.522 75.5947" fill="#1A2E35"/>
<path fill-rule="evenodd" clip-rule="evenodd" d="M256.889 78.6895C255.104 85.6562 254.415 89.8148 250.144 92.8347C243.72 97.3761 235.593 92.7031 235.25 85.3964C234.942 78.8202 237.911 68.5327 245.384 66.8815C252.745 65.2538 258.674 71.7227 256.889 78.6895" fill="#CE5B51"/>
<path fill-rule="evenodd" clip-rule="evenodd" d="M245.013 64.9921C240.637 65.894 235.788 69.2764 239.964 71.7569C244.14 74.2374 253.552 74.6317 253.552 74.6317C253.552 74.6317 250.444 81.6031 254.7 85.2106C256.118 84.5337 253.088 90.6278 253.088 90.6278C253.088 90.6278 255.251 90.0966 256.748 87.6911C259.283 87.0744 266.834 75.5143 261.792 72.2078C260.845 65.4431 250.891 63.7807 245.013 64.9921" fill="#1A2E35"/>
<path fill-rule="evenodd" clip-rule="evenodd" d="M255.917 83.6278C255.883 83.6278 255.849 83.6215 255.816 83.6089L248.979 81.0156C248.856 80.9692 248.801 80.848 248.858 80.7458C248.915 80.6435 249.061 80.6003 249.182 80.6459L256.019 83.2392C256.142 83.2856 256.197 83.4068 256.14 83.509C256.098 83.5837 256.01 83.6278 255.917 83.6278" fill="white"/>
<path fill-rule="evenodd" clip-rule="evenodd" d="M259.378 87.4982C258.027 88.8617 256.122 89.5472 254.479 89.6233C252.008 89.738 251.367 87.6194 252.553 85.7663C253.62 84.099 256.192 82.0287 258.432 82.7903C260.64 83.5413 260.922 85.939 259.378 87.4982" fill="#CE5B51"/>
<path fill-rule="evenodd" clip-rule="evenodd" d="M225.865 163.628C225.865 163.628 223.481 216.401 223.733 237.926C223.996 260.314 233.784 325.628 233.784 325.628H246.365C246.365 325.628 245.233 261.622 246.36 239.634C247.589 215.664 251.976 163.628 251.976 163.628H225.865Z" fill="#007CFF"/>
<path fill-rule="evenodd" clip-rule="evenodd" d="M246.503 320.11C246.562 320.11 246.742 325.628 246.742 325.628H231.892L231.042 319.628L246.503 320.11Z" fill="#1A2E35"/>
<path fill-rule="evenodd" clip-rule="evenodd" d="M242.642 177.628C242.191 203.874 243.488 219.815 246.68 232.628C247.467 220.11 248.755 203.558 249.882 189.806L242.642 177.628Z" fill="black"/>
<path fill-rule="evenodd" clip-rule="evenodd" d="M239.415 163.628C239.415 163.628 246.396 217.569 250.468 237.776C254.928 259.906 271.977 325.628 271.977 325.628H285.471C285.471 325.628 274.825 261.693 272.518 239.783C270.013 216.003 264.84 163.628 264.84 163.628H239.415Z" fill="#007CFF"/>
<path fill-rule="evenodd" clip-rule="evenodd" d="M285.499 321.185C285.558 321.185 286.517 326.628 286.517 326.628H271.426L269.77 320.628L285.499 321.185Z" fill="#1A2E35"/>
<path fill-rule="evenodd" clip-rule="evenodd" d="M245.674 79.7364C245.593 80.2851 245.303 80.6819 245.026 80.6218C244.748 80.5616 244.589 80.068 244.67 79.5192C244.75 78.9704 245.041 78.5737 245.319 78.6338C245.596 78.6931 245.755 79.1868 245.674 79.7364" fill="#1A2E35"/>
<path fill-rule="evenodd" clip-rule="evenodd" d="M238.347 77.7364C238.266 78.2851 237.976 78.6819 237.699 78.6218C237.421 78.5624 237.262 78.068 237.343 77.5192C237.423 76.9704 237.714 76.5737 237.992 76.6338C238.269 76.6931 238.428 77.1868 238.347 77.7364" fill="#1A2E35"/>
<path fill-rule="evenodd" clip-rule="evenodd" d="M241.509 79.6278C241.509 79.6278 239.214 82.3297 237.322 83.4161C238.016 84.5631 239.83 84.6278 239.83 84.6278L241.509 79.6278Z" fill="#BB221E"/>
<path fill-rule="evenodd" clip-rule="evenodd" d="M242.684 86.532C242.598 86.5127 242.542 86.4045 242.558 86.2897C242.574 86.1761 242.658 86.0989 242.743 86.1182C245.064 86.6339 246.456 84.7148 246.47 84.6955C246.532 84.6108 246.632 84.6044 246.693 84.6827C246.757 84.7609 246.759 84.8939 246.697 84.9786C246.636 85.0643 245.172 87.0852 242.684 86.532" fill="#1A2E35"/>
<path fill-rule="evenodd" clip-rule="evenodd" d="M249.379 77.6189C249.265 77.5983 249.167 77.5426 249.121 77.4621C248.486 76.3557 247.07 76.1618 247.055 76.1611C246.853 76.1411 246.706 75.994 246.75 75.8475C246.796 75.7017 247.005 75.6054 247.218 75.6323C247.294 75.6419 249.069 75.8826 249.856 77.2565C249.934 77.3934 249.833 77.5502 249.631 77.6072C249.548 77.6306 249.46 77.6334 249.379 77.6189" fill="#1A2E35"/>
<path fill-rule="evenodd" clip-rule="evenodd" d="M237.571 74.6183C237.524 74.6063 237.479 74.5831 237.439 74.5459C237.299 74.4206 237.282 74.1922 237.401 74.0353C238.588 72.4736 240.108 72.6278 240.172 72.6352C240.35 72.6473 240.482 72.8329 240.459 73.0335C240.436 73.2331 240.272 73.3779 240.091 73.3584C240.041 73.3529 238.854 73.247 237.906 74.493C237.821 74.6044 237.69 74.649 237.571 74.6183" fill="#1A2E35"/>
<path fill-rule="evenodd" clip-rule="evenodd" d="M246.402 76.0967C244.862 76.0967 243.439 77.3502 243.109 79.0961C242.916 80.1134 243.127 81.1462 243.689 81.9283C244.149 82.5677 244.811 82.9901 245.552 83.1173C247.274 83.407 248.96 82.0845 249.325 80.1588C249.518 79.1415 249.306 78.1087 248.743 77.3266C248.284 76.6871 247.623 76.2648 246.881 76.1376C246.721 76.1103 246.561 76.0967 246.402 76.0967V76.0967ZM246.032 83.6278C245.846 83.6278 245.659 83.6123 245.471 83.5796C244.599 83.4307 243.827 82.9393 243.292 82.1962C242.657 81.3115 242.417 80.1506 242.633 79.0107C243.046 76.8316 245.004 75.3383 246.967 75.6752C247.837 75.8242 248.61 76.3156 249.145 77.0587C249.78 77.9434 250.021 79.1042 249.805 80.2433V80.2442C249.431 82.2144 247.803 83.6278 246.032 83.6278V83.6278Z" fill="white"/>
<path fill-rule="evenodd" clip-rule="evenodd" d="M243.399 79.6278C243.334 79.6278 243.27 79.5998 243.231 79.5492C242.611 78.7406 241.827 79.0229 241.792 79.0352C241.691 79.0728 241.571 79.0331 241.525 78.9443C241.482 78.8554 241.526 78.7515 241.628 78.7126C241.638 78.7078 242.754 78.2902 243.568 79.353C243.63 79.4337 243.605 79.5437 243.512 79.5977C243.478 79.6182 243.439 79.6278 243.399 79.6278" fill="white"/>
<path fill-rule="evenodd" clip-rule="evenodd" d="M238.028 74.0966C236.488 74.0966 235.066 75.3502 234.735 77.0963C234.542 78.1129 234.754 79.1458 235.316 79.9289C235.775 80.5685 236.437 80.9909 237.179 81.1181C238.9 81.4152 240.586 80.0852 240.951 78.1592C241.144 77.1417 240.933 76.1088 240.371 75.3266C239.911 74.6871 239.249 74.2646 238.508 74.1374C238.347 74.1102 238.187 74.0966 238.028 74.0966V74.0966ZM237.659 81.6278C237.472 81.6278 237.285 81.6123 237.097 81.5805C236.227 81.4315 235.453 80.9401 234.918 80.1969C234.283 79.3121 234.043 78.1511 234.259 77.0109C234.673 74.8315 236.626 73.3389 238.593 73.675C239.465 73.824 240.237 74.3155 240.772 75.0586C241.407 75.9435 241.647 77.1045 241.431 78.2446C241.057 80.2151 239.429 81.6278 237.659 81.6278V81.6278Z" fill="white"/>
<path fill-rule="evenodd" clip-rule="evenodd" d="M272.624 333.994C272.524 333.994 272.44 334.009 272.375 334.041C272.323 334.067 272.262 334.116 272.25 334.26C272.222 334.558 272.301 334.78 272.492 334.94C272.922 335.303 273.974 335.351 275.35 335.082C274.453 334.566 273.242 333.994 272.624 333.994M273.782 335.628C273.169 335.628 272.598 335.525 272.24 335.226C271.957 334.988 271.832 334.654 271.87 334.237C271.897 333.926 272.07 333.777 272.211 333.708C273.104 333.261 275.675 334.823 275.965 335.004C276.028 335.045 276.061 335.119 276.047 335.194C276.033 335.267 275.975 335.327 275.9 335.344C275.336 335.477 274.528 335.628 273.782 335.628" fill="#007CFF"/>
<path fill-rule="evenodd" clip-rule="evenodd" d="M274.591 332.942C274.568 332.942 274.544 332.944 274.519 332.947C274.31 332.971 274.29 333.065 274.281 333.105C274.186 333.541 275.019 334.638 275.699 335.156C275.634 334.597 275.447 333.482 274.955 333.079C274.842 332.987 274.723 332.942 274.591 332.942M275.887 335.628C275.86 335.628 275.834 335.622 275.811 335.61C275.122 335.237 273.809 333.785 273.97 333.046C273.999 332.912 274.106 332.681 274.489 332.635C274.74 332.604 274.965 332.673 275.164 332.836C275.933 333.465 276.046 335.378 276.05 335.459C276.054 335.517 276.024 335.572 275.974 335.603C275.947 335.62 275.917 335.628 275.887 335.628" fill="#007CFF"/>
<path fill-rule="evenodd" clip-rule="evenodd" d="M231.771 333.994C231.646 333.994 231.544 334.016 231.469 334.062C231.405 334.106 231.373 334.165 231.365 334.263C231.343 334.516 231.402 334.713 231.546 334.864C231.953 335.295 233.066 335.369 234.566 335.079C233.64 334.559 232.411 333.994 231.771 333.994M232.963 335.628C232.29 335.628 231.672 335.507 231.328 335.143C231.11 334.912 231.015 334.606 231.048 334.234C231.067 334.013 231.161 333.84 231.322 333.737C232.155 333.199 234.842 334.811 235.146 334.996C235.205 335.032 235.238 335.11 235.226 335.188C235.215 335.267 235.164 335.33 235.096 335.346C234.519 335.479 233.708 335.628 232.963 335.628" fill="#007CFF"/>
<path fill-rule="evenodd" clip-rule="evenodd" d="M234.065 332.943C234.026 332.943 233.984 332.946 233.944 332.948C233.578 332.977 233.551 333.088 233.543 333.124C233.435 333.574 234.787 334.699 235.824 335.19C235.732 334.669 235.461 333.601 234.761 333.148C234.55 333.01 234.323 332.943 234.065 332.943M236.067 335.628C236.038 335.628 236.011 335.623 235.985 335.614C234.965 335.256 232.966 333.824 233.146 333.074C233.188 332.899 233.356 332.68 233.914 332.636C234.32 332.597 234.703 332.694 235.028 332.905C236.093 333.597 236.267 335.381 236.275 335.456C236.279 335.511 236.246 335.566 236.186 335.599C236.15 335.618 236.109 335.628 236.067 335.628" fill="#007CFF"/>
<path fill-rule="evenodd" clip-rule="evenodd" d="M255.917 100.628L264.431 101.607C267.36 101.943 269.533 104.357 269.436 107.174C269.002 119.852 267.245 137.283 268.653 163.939C269.363 177.381 279.19 250.381 279.19 250.381L259.824 253.628C259.824 253.628 246.052 214.273 240.51 167.554C238.133 147.519 240.366 129.358 240.366 129.358L255.917 100.628Z" fill="#007CFF"/>
<path fill-rule="evenodd" clip-rule="evenodd" d="M255.917 100.628L264.431 101.607C267.36 101.943 269.533 104.357 269.436 107.174C269.002 119.852 267.245 137.283 268.653 163.939C269.363 177.381 279.19 250.381 279.19 250.381L259.824 253.628C259.824 253.628 246.052 214.273 240.51 167.554C238.133 147.519 240.366 129.358 240.366 129.358L255.917 100.628Z" fill="white"/>
<path fill-rule="evenodd" clip-rule="evenodd" d="M262.443 116.628C262.443 118.505 264.106 128.046 268.209 134.628C268.321 130.141 268.512 126.038 268.723 122.268L262.443 116.628Z" fill="#007CFF"/>
<path fill-rule="evenodd" clip-rule="evenodd" d="M226.507 114.628C225.398 116.651 222.201 125.248 220.574 134.628C221.317 134.133 222.022 133.62 222.708 133.099C225.341 131.03 227.579 128.782 229.6 126.462C229.732 126.309 229.864 126.147 229.995 125.994L226.507 114.628Z" fill="#007CFF"/>
<path fill-rule="evenodd" clip-rule="evenodd" d="M238.901 101.628L233.752 102.206C228.633 102.78 224.722 106.73 224.526 111.533C223.94 125.773 222.742 154.212 222.093 164.127C221.215 177.568 221.831 250.603 221.831 250.603L234.203 252.628C234.203 252.628 237.341 212.413 241.502 167.744C243.282 148.637 242.267 127.887 242.267 127.887L238.901 101.628Z" fill="#007CFF"/>
<path fill-rule="evenodd" clip-rule="evenodd" d="M238.901 101.628L233.752 102.206C228.633 102.78 224.722 106.73 224.526 111.533C223.94 125.773 222.742 154.212 222.093 164.127C221.215 177.568 221.831 250.603 221.831 250.603L234.203 252.628C234.203 252.628 237.341 212.413 241.502 167.744C243.282 148.637 242.267 127.887 242.267 127.887L238.901 101.628Z" fill="white"/>
<path fill-rule="evenodd" clip-rule="evenodd" d="M243.602 105.077C245.283 107.68 246.194 110.628 246.194 110.628C246.194 110.628 257.612 106.734 257.198 100.477C257.198 100.477 255.497 99.4568 254.419 98.6278C254.419 98.6278 253.908 102.571 243.602 105.077" fill="#F5F5F5"/>
<path fill-rule="evenodd" clip-rule="evenodd" d="M243.602 104.814C241.452 107.356 240.484 109.628 240.484 109.628C240.484 109.628 235.984 106.603 237.72 100.586C237.72 100.586 239.23 99.9557 240.736 99.6278C240.736 99.6278 239.946 103.511 243.602 104.814" fill="#F5F5F5"/>
<path fill-rule="evenodd" clip-rule="evenodd" d="M255.116 167.628L268.723 178.628L259.429 174.35L255.116 167.628Z" fill="#007CFF"/>
<path fill-rule="evenodd" clip-rule="evenodd" d="M268.77 104.628C269.341 105.386 269.764 105.99 270.239 106.667L271.591 108.649C272.476 109.974 273.33 111.313 274.162 112.67C275.83 115.381 277.408 118.162 278.852 121.064C280.282 123.976 281.612 126.991 282.664 130.263C283.193 131.893 283.641 133.6 283.963 135.407C284.29 137.2 284.466 139.166 284.415 141.117C284.276 144.968 283.43 148.468 282.292 151.699C281.148 154.935 279.697 157.919 278.122 160.775C276.538 163.624 274.807 166.336 272.955 168.944C272.034 170.252 271.089 171.539 270.108 172.805C269.619 173.439 269.118 174.066 268.608 174.693C268.081 175.336 267.608 175.907 266.973 176.628L257.63 168.761C257.991 168.35 258.482 167.765 258.908 167.242L260.213 165.594C261.072 164.481 261.91 163.347 262.712 162.193C264.307 159.882 265.774 157.506 267.069 155.1C268.351 152.693 269.435 150.239 270.224 147.824C271.007 145.413 271.481 143.033 271.466 140.927C271.444 138.943 270.921 136.685 270.042 134.284C269.178 131.899 268.012 129.46 266.675 127.065C265.334 124.666 263.847 122.287 262.245 119.964C261.439 118.806 260.609 117.658 259.758 116.53L258.469 114.859C258.049 114.327 257.57 113.729 257.209 113.306L268.77 104.628Z" fill="#007CFF"/>
<path fill-rule="evenodd" clip-rule="evenodd" d="M268.77 104.628C269.341 105.386 269.764 105.99 270.239 106.667L271.591 108.649C272.476 109.974 273.33 111.313 274.162 112.67C275.83 115.381 277.408 118.162 278.852 121.064C280.282 123.976 281.612 126.991 282.664 130.263C283.193 131.893 283.641 133.6 283.963 135.407C284.29 137.2 284.466 139.166 284.415 141.117C284.276 144.968 283.43 148.468 282.292 151.699C281.148 154.935 279.697 157.919 278.122 160.775C276.538 163.624 274.807 166.336 272.955 168.944C272.034 170.252 271.089 171.539 270.108 172.805C269.619 173.439 269.118 174.066 268.608 174.693C268.081 175.336 267.608 175.907 266.973 176.628L257.63 168.761C257.991 168.35 258.482 167.765 258.908 167.242L260.213 165.594C261.072 164.481 261.91 163.347 262.712 162.193C264.307 159.882 265.774 157.506 267.069 155.1C268.351 152.693 269.435 150.239 270.224 147.824C271.007 145.413 271.481 143.033 271.466 140.927C271.444 138.943 270.921 136.685 270.042 134.284C269.178 131.899 268.012 129.46 266.675 127.065C265.334 124.666 263.847 122.287 262.245 119.964C261.439 118.806 260.609 117.658 259.758 116.53L258.469 114.859C258.049 114.327 257.57 113.729 257.209 113.306L268.77 104.628Z" fill="white"/>
<path fill-rule="evenodd" clip-rule="evenodd" d="M257.028 119.752C256.501 121.089 254.984 121.893 253.639 121.548C252.294 121.203 251.63 119.841 252.157 118.503C252.684 117.167 254.201 116.363 255.546 116.708C256.891 117.052 257.556 118.416 257.028 119.752" fill="#1A2E35"/>
<path fill-rule="evenodd" clip-rule="evenodd" d="M257.028 119.752C256.501 121.089 254.984 121.893 253.639 121.548C252.294 121.203 251.63 119.841 252.157 118.503C252.684 117.167 254.201 116.363 255.546 116.708C256.891 117.052 257.556 118.416 257.028 119.752" fill="white"/>
<path fill-rule="evenodd" clip-rule="evenodd" d="M254.446 118.628C254.369 118.628 254.292 118.608 254.225 118.564C254.057 118.456 254.019 118.246 254.14 118.095C261.368 109.113 259.344 101.123 259.323 101.043C259.275 100.863 259.399 100.681 259.601 100.638C259.815 100.592 260.008 100.707 260.055 100.886C260.078 100.969 262.192 109.242 254.751 118.488C254.678 118.579 254.562 118.628 254.446 118.628" fill="#1A2E35"/>
<path fill-rule="evenodd" clip-rule="evenodd" d="M230.444 113.628C230.253 113.628 230.091 113.5 230.075 113.332C229.299 104.915 234.434 101.81 234.652 101.683C234.821 101.583 235.051 101.622 235.165 101.769C235.279 101.916 235.235 102.115 235.067 102.216C235.017 102.245 230.073 105.261 230.813 113.281C230.828 113.458 230.677 113.613 230.473 113.627C230.464 113.628 230.453 113.628 230.444 113.628" fill="#1A2E35"/>
<path fill-rule="evenodd" clip-rule="evenodd" d="M255.982 119.752C255.455 121.089 253.938 121.893 252.592 121.548C251.247 121.203 250.583 119.841 251.11 118.503C251.637 117.167 253.155 116.363 254.499 116.708C255.845 117.052 256.509 118.416 255.982 119.752" fill="#1A2E35"/>
<path fill-rule="evenodd" clip-rule="evenodd" d="M255.982 119.752C255.455 121.089 253.938 121.893 252.592 121.548C251.247 121.203 250.583 119.841 251.11 118.503C251.637 117.167 253.155 116.363 254.499 116.708C255.845 117.052 256.509 118.416 255.982 119.752" fill="white"/>
<path fill-rule="evenodd" clip-rule="evenodd" d="M255.007 118.502C254.691 119.304 253.781 119.787 252.973 119.58C252.167 119.373 251.768 118.555 252.084 117.753C252.401 116.951 253.311 116.469 254.118 116.676C254.925 116.883 255.324 117.7 255.007 118.502" fill="white"/>
<path fill-rule="evenodd" clip-rule="evenodd" d="M233.402 133.628C233.212 133.628 233.058 133.479 233.058 133.294C233.058 133.11 233.212 132.961 233.402 132.961C234.739 132.961 235.888 131.906 235.965 130.609L236.625 119.391C236.72 117.766 236.153 116.235 235.03 115.081C233.908 113.929 232.372 113.294 230.702 113.294C227.216 113.294 224.219 116.047 224.02 119.429L223.358 130.647C223.322 131.268 223.536 131.85 223.961 132.286C224.385 132.721 224.969 132.961 225.607 132.961C225.797 132.961 225.951 133.11 225.951 133.294C225.951 133.479 225.797 133.628 225.607 133.628C224.778 133.628 224.016 133.314 223.461 132.744C222.904 132.173 222.625 131.415 222.673 130.609L223.334 119.391C223.553 115.661 226.859 112.628 230.702 112.628C232.564 112.628 234.277 113.336 235.529 114.622C236.785 115.912 237.417 117.619 237.31 119.429L236.65 130.647C236.554 132.29 235.097 133.628 233.402 133.628" fill="#1A2E35"/>
<path fill-rule="evenodd" clip-rule="evenodd" d="M225.805 133.627C225.776 134.18 225.519 134.628 225.232 134.628C224.945 134.628 224.735 134.18 224.764 133.627C224.793 133.076 225.049 132.628 225.337 132.628C225.624 132.628 225.834 133.076 225.805 133.627" fill="#1A2E35"/>
<path fill-rule="evenodd" clip-rule="evenodd" d="M234.179 133.627C234.15 134.18 233.893 134.628 233.606 134.628C233.319 134.628 233.109 134.18 233.138 133.627C233.167 133.076 233.423 132.628 233.71 132.628C233.998 132.628 234.208 133.076 234.179 133.627" fill="#1A2E35"/>
<path fill-rule="evenodd" clip-rule="evenodd" d="M162.593 66.6278L161.958 66.146C163.347 64.1265 165.134 62.5194 167.271 61.3689C170.834 59.4494 174.897 59.1052 178.706 60.3951L178.465 61.178C174.853 59.9555 171.005 60.2838 167.627 62.1013C165.603 63.192 163.909 64.7149 162.593 66.6278" fill="#007CFF"/>
<path fill-rule="evenodd" clip-rule="evenodd" d="M159.376 73.6278L158.818 73.6066C158.848 72.2645 159.021 70.9258 159.334 69.6278L159.865 69.8557C159.569 71.0868 159.404 72.356 159.376 73.6278" fill="#007CFF"/>
<path fill-rule="evenodd" clip-rule="evenodd" d="M200.673 74.0093C197.761 67.6652 190.128 65.0812 183.935 68.2229C180.817 62.1985 173.306 59.8586 167.252 63.0698C161.31 66.2221 159.255 73.6983 162.329 79.6381L170.346 95.1235C171.984 98.289 175.905 99.54 179.102 97.9172L194.796 89.9538C200.663 86.9769 203.401 79.9517 200.673 74.0093" fill="#007CFF"/>
</svg>
