<svg width="900" height="900" xmlns="http://www.w3.org/2000/svg" preserveAspectRatio="xMidYMid meet">
 <metadata>Created by potrace 1.10, written by Peter Selinger 2001-2011</metadata>

 <g>
  <title>background</title>
  <rect fill="none" id="canvas_background" height="402" width="582" y="-1" x="-1"/>
 </g>
 <g>
  <title>Layer 1</title>
  <ellipse ry="222.5" rx="187" id="svg_4" cy="458.5" cx="436" stroke-width="1.5" stroke="#000" fill="#fff"/>
  <g id="svg_1" fill="#32cd32" transform="translate(0,900) scale(0.10000000149011612,-0.10000000149011612) ">
   <path id="svg_2" d="m4325,7819c-71,-5 -177,-16 -235,-24c-58,-8 -119,-15 -136,-15c-17,0 -51,-7 -74,-15c-23,-8 -57,-15 -74,-15c-17,0 -51,-6 -76,-14c-25,-8 -72,-22 -105,-30c-120,-33 -171,-48 -198,-62c-16,-8 -33,-14 -39,-14c-14,0 -163,-56 -201,-76c-16,-8 -36,-14 -45,-14c-8,0 -23,-6 -31,-13c-9,-7 -36,-22 -61,-32c-25,-10 -52,-25 -61,-32c-8,-7 -23,-13 -32,-13c-9,0 -19,-5 -22,-11c-4,-5 -17,-14 -28,-19c-12,-6 -49,-26 -82,-45c-33,-19 -67,-38 -75,-42c-8,-4 -41,-25 -75,-48c-33,-23 -67,-44 -75,-47c-14,-6 -190,-140 -269,-205c-46,-37 -315,-305 -370,-367c-46,-53 -221,-282 -221,-290c0,-3 -19,-33 -43,-68c-24,-35 -46,-70 -50,-78c-4,-8 -21,-37 -38,-65c-16,-27 -36,-64 -44,-82c-8,-17 -19,-34 -25,-38c-5,-3 -10,-14 -10,-24c0,-10 -7,-24 -15,-31c-8,-7 -15,-19 -15,-26c0,-8 -13,-36 -30,-62c-16,-27 -30,-58 -30,-69c0,-11 -7,-26 -15,-33c-8,-7 -15,-18 -15,-25c0,-15 -54,-157 -75,-198c-8,-16 -15,-40 -15,-53c0,-14 -5,-35 -11,-46c-7,-12 -22,-62 -34,-112c-13,-50 -28,-104 -34,-119c-6,-16 -11,-44 -11,-64c0,-19 -7,-56 -15,-82c-26,-83 -60,-436 -59,-616c0,-190 33,-536 60,-631c8,-28 14,-68 14,-88c0,-21 5,-46 11,-58c6,-11 21,-61 34,-112c12,-51 27,-102 34,-114c6,-11 11,-30 11,-41c0,-11 7,-37 16,-58c9,-21 22,-51 29,-68c7,-16 20,-52 30,-80c22,-65 46,-120 90,-205c7,-14 21,-43 31,-65c11,-22 38,-72 62,-112c23,-39 42,-74 42,-77c0,-3 20,-35 45,-72c25,-36 45,-67 45,-70c0,-7 209,-286 224,-299c6,-5 29,-32 51,-59c82,-103 289,-299 417,-396c11,-8 40,-32 65,-53c45,-38 160,-117 170,-117c3,0 22,-12 42,-28c40,-30 67,-47 96,-62c11,-6 34,-19 50,-29c30,-19 273,-142 330,-166c106,-46 179,-75 190,-75c7,0 18,-7 25,-15c7,-8 23,-15 36,-15c13,0 38,-6 56,-14c46,-19 141,-46 164,-46c11,0 25,-5 32,-12c6,-6 33,-15 59,-18c27,-4 68,-12 93,-18c83,-20 266,-47 425,-63c126,-12 590,-6 675,10c30,5 84,15 120,22c36,7 90,15 120,19c30,4 68,12 83,18c16,7 45,12 66,12c20,0 46,7 57,15c10,8 26,15 35,15c21,0 114,27 157,46c18,8 43,14 55,14c12,0 31,6 42,14c11,7 31,17 45,21c14,4 50,18 80,32c30,13 69,30 85,37c85,38 257,124 310,156c33,20 67,39 75,43c22,10 50,28 91,60c20,15 39,27 42,27c8,0 139,90 152,104c6,6 30,27 55,46c84,64 305,264 345,312c15,18 62,71 105,118c82,90 202,243 213,273c3,9 11,17 17,17c5,0 10,5 10,11c0,6 13,28 28,48c16,20 32,43 35,51c4,8 16,29 27,45c11,17 23,37 27,45c4,8 25,47 48,85c22,39 51,91 63,117c13,26 27,50 33,53c5,4 9,13 9,21c0,7 14,44 31,81c52,116 59,133 59,147c0,8 7,19 15,26c8,7 15,25 15,40c0,16 6,41 14,57c8,15 22,55 31,88c9,33 23,75 31,93c8,18 14,44 14,58c0,15 7,47 14,73c8,25 22,89 31,141c9,52 21,120 26,150c6,30 13,65 15,77c10,55 41,52 -584,52c-318,1 -592,1 -610,1c-24,0 -41,8 -63,32l-29,32l0,278l0,277l37,36l36,35l599,0l598,0l11,23c8,17 7,40 -1,83c-7,32 -16,79 -20,104c-16,98 -32,177 -46,220c-8,25 -14,58 -14,73c0,16 -6,41 -14,55c-8,15 -22,56 -32,92c-9,36 -23,77 -31,92c-7,15 -13,37 -13,49c0,12 -6,30 -13,38c-8,9 -22,39 -31,66c-29,82 -154,342 -197,410c-10,17 -23,39 -29,50c-6,11 -19,34 -30,50c-11,17 -23,37 -27,45c-3,8 -19,31 -35,51c-15,20 -28,40 -28,44c0,3 -20,33 -45,65c-25,32 -45,63 -45,69c0,6 -4,11 -8,11c-4,0 -24,21 -43,48c-132,175 -492,518 -647,616c-21,13 -43,31 -51,40c-7,9 -18,16 -23,16c-6,0 -27,13 -47,28c-20,16 -43,32 -51,35c-8,4 -28,16 -45,26c-30,20 -107,63 -157,88c-15,8 -30,18 -33,24c-4,5 -14,9 -24,9c-10,0 -24,7 -31,15c-7,8 -18,15 -26,15c-7,0 -36,14 -64,30c-28,17 -59,30 -69,30c-10,0 -24,7 -31,15c-7,8 -20,15 -30,15c-15,0 -94,31 -195,75c-16,7 -41,16 -55,19c-14,3 -50,12 -80,21c-144,43 -200,57 -260,65c-36,4 -78,13 -95,19c-104,35 -571,65 -790,50zm349,-1415c39,-9 78,-20 87,-24c9,-5 34,-12 55,-16c22,-4 48,-13 59,-20c11,-8 25,-14 31,-14c15,0 90,-35 129,-60c17,-11 37,-23 45,-27c32,-14 137,-101 199,-163c72,-73 196,-235 226,-295c11,-21 30,-54 42,-72c20,-31 45,-82 79,-161c62,-143 68,-163 72,-256c3,-81 2,-90 -20,-113c-34,-37 -94,-73 -122,-73c-13,0 -43,-7 -66,-15c-23,-8 -61,-15 -83,-15c-22,0 -66,-6 -96,-14c-84,-21 -233,-46 -277,-46c-21,0 -61,-7 -88,-15c-27,-8 -73,-15 -101,-15c-29,0 -75,-6 -101,-14c-27,-8 -103,-22 -169,-31c-66,-9 -150,-23 -186,-31c-37,-8 -88,-14 -115,-14c-26,0 -70,-6 -98,-14c-47,-13 -83,-19 -276,-46c-36,-5 -83,-14 -105,-20c-22,-5 -61,-10 -86,-10c-26,0 -66,-7 -89,-15c-23,-8 -66,-15 -94,-15c-28,0 -69,-5 -91,-11c-22,-6 -58,-13 -80,-16c-22,-3 -50,-14 -62,-26c-21,-19 -23,-29 -23,-137c0,-79 5,-131 15,-160c8,-23 15,-57 15,-74c0,-37 33,-174 49,-204c6,-11 11,-33 11,-47c0,-15 6,-39 13,-53c8,-15 21,-43 29,-62c8,-19 29,-64 46,-100c18,-36 32,-69 32,-73c0,-10 76,-137 119,-198c17,-24 48,-69 68,-98c82,-120 313,-329 411,-371c13,-5 49,-22 80,-36c133,-62 161,-69 341,-91c137,-16 262,-10 381,19c25,6 63,14 85,17c22,4 49,12 60,18c11,6 56,26 100,44c44,18 87,38 96,46c8,7 22,13 31,13c8,0 31,12 51,28c20,15 61,45 93,67c31,22 90,76 131,119c75,79 183,232 183,259c0,8 7,20 15,27c8,7 15,18 15,26c0,16 37,82 63,112c40,44 165,21 213,-39c35,-44 22,-150 -34,-279c-9,-19 -21,-48 -28,-65c-25,-59 -85,-180 -104,-210c-11,-16 -23,-37 -27,-45c-21,-48 -167,-230 -260,-326c-48,-49 -229,-192 -263,-208c-17,-8 -38,-20 -97,-59c-24,-15 -49,-27 -56,-27c-7,0 -22,-7 -33,-15c-10,-8 -28,-15 -39,-15c-11,0 -29,-6 -40,-13c-19,-13 -58,-25 -175,-56c-25,-7 -92,-16 -150,-21c-58,-5 -123,-14 -145,-19c-64,-17 -371,-14 -438,4c-32,8 -76,15 -99,15c-22,0 -61,7 -87,14c-25,8 -73,23 -106,33c-33,9 -67,23 -76,30c-8,7 -24,13 -33,13c-10,0 -30,6 -44,14c-15,8 -47,24 -72,36c-49,23 -62,30 -128,73c-24,15 -46,27 -51,27c-4,0 -20,13 -37,28c-16,15 -56,49 -89,74c-55,41 -235,227 -235,242c0,3 -7,14 -16,23c-35,41 -104,144 -104,158c0,7 -6,18 -13,22c-11,7 -113,208 -151,298c-7,17 -21,47 -30,68c-9,21 -16,47 -16,58c0,12 -6,33 -14,47c-17,35 -36,88 -46,132c-4,19 -13,48 -19,63c-6,16 -11,42 -11,58c0,17 -5,40 -11,51c-15,27 -35,161 -55,358c-13,130 -14,181 -4,315c7,88 16,174 20,190c5,17 12,57 16,90c3,33 13,72 20,87c8,15 14,37 14,50c0,32 47,174 76,230c8,14 14,32 14,39c0,14 60,136 91,184c10,17 23,40 29,53c54,123 257,349 433,480c104,78 140,99 282,170c151,75 230,103 415,142c25,6 63,14 85,19c22,5 150,9 284,10c189,1 259,-3 315,-15z"/>
   <path id="svg_3" d="m4055,6070c-123,-16 -223,-53 -314,-114c-29,-20 -56,-36 -60,-36c-4,0 -14,-8 -22,-17c-9,-10 -37,-38 -63,-62c-59,-55 -108,-115 -136,-166c-11,-22 -25,-47 -29,-55c-32,-59 -41,-80 -41,-93c0,-8 -7,-20 -15,-27c-8,-7 -15,-25 -15,-41c0,-16 -6,-43 -14,-61c-16,-38 -46,-165 -46,-197c0,-12 -7,-36 -16,-53c-12,-24 -13,-36 -5,-54c9,-20 18,-24 58,-24c27,0 73,7 103,15c30,8 77,15 104,15c27,0 75,6 105,14c56,14 157,30 286,46c39,4 83,13 98,19c16,6 49,11 75,11c26,0 69,7 96,15c27,8 75,15 107,15c32,0 70,5 86,11c25,9 126,28 268,49c67,10 121,35 141,65c13,20 15,39 9,99c-3,41 -13,83 -20,93c-8,10 -15,30 -15,44c0,22 -43,118 -83,184c-66,109 -176,214 -267,257c-102,47 -247,66 -375,48z"/>
  </g>
 </g>
</svg>